<?xml version="1.0" encoding="utf-8"?>
<!-- Generator: Adobe Illustrator 20.0.0, SVG Export Plug-In . SVG Version: 6.00 Build 0)  -->
<svg version="1.1" id="Layer_1" xmlns="http://www.w3.org/2000/svg" xmlns:xlink="http://www.w3.org/1999/xlink" x="0px" y="0px"
	 width="300px" height="300px" viewBox="0 0 300 300" style="enable-background:new 0 0 300 300;" xml:space="preserve">
<style type="text/css">
	.st0{fill-rule:evenodd;clip-rule:evenodd;fill:#FFFFFF;}
	.st1{fill:#231F20;}
	.st2{fill-rule:evenodd;clip-rule:evenodd;fill:#EC1C24;}
</style>
<circle class="st0" cx="149.5" cy="150.7" r="143.7"/>
<path class="st1" d="M149.5,295.7c-19.6,0-38.6-3.8-56.4-11.4C75.8,277,60.3,266.5,47,253.2c-13.3-13.3-23.8-28.8-31.1-46.1
	c-7.6-17.9-11.4-36.9-11.4-56.4s3.8-38.6,11.4-56.4C23.2,77,33.6,61.5,47,48.2C60.3,34.8,75.8,24.4,93,17.1
	c17.9-7.6,36.9-11.4,56.4-11.4c19.6,0,38.6,3.8,56.4,11.4c17.3,7.3,32.8,17.8,46.1,31.1c13.3,13.3,23.8,28.8,31.1,46.1
	c7.6,17.9,11.4,36.9,11.4,56.4s-3.8,38.6-11.4,56.4c-7.3,17.3-17.8,32.8-31.1,46.1c-13.3,13.3-28.8,23.8-46.1,31.1
	C188,291.9,169.1,295.7,149.5,295.7z M149.5,8.3C71,8.3,7.1,72.2,7.1,150.7S71,293.1,149.5,293.1c78.5,0,142.4-63.9,142.4-142.4
	S228,8.3,149.5,8.3z"/>
<polygon class="st2" points="234.6,121.4 178.8,121.4 178.8,65.6 120.2,65.6 120.2,121.4 64.4,121.4 64.4,180 120.2,180 
	120.2,235.8 178.8,235.8 178.8,180 234.6,180 "/>
<path class="st1" d="M277.5,195.6l-6.2-2l-10.3,2.9l0.8-2.4l5.3-1.4c0.9-0.3,1.9-0.5,3-0.7c-0.6-0.7-1.3-1.5-2.1-2.4l-3.4-4.2
	l0.7-2.3l6.5,8.6l6.2,2L277.5,195.6z M272,209l-12.5-5.3l-2,4.7l-1.7-0.7l4.8-11.2l1.7,0.7l-2,4.7l12.5,5.3L272,209z M262.7,225.8
	l-13-8.1l5.9-9.4l1.5,1l-4.8,7.7l4,2.5l4.5-7.2l1.5,1l-4.5,7.2l4.4,2.8l5-8l1.5,1L262.7,225.8z M259.3,230.6l-12.4-9l1.2-1.6l12.4,9
	L259.3,230.6z M252.2,230.9l1.7-1.2c1,1.4,1.5,2.8,1.4,4.2c0,1.4-0.6,2.7-1.6,4c-1.1,1.3-2.2,2.1-3.4,2.4c-1.2,0.4-2.4,0.3-3.8-0.1
	c-1.3-0.4-2.6-1.1-3.7-2c-1.2-1-2.1-2.1-2.6-3.4c-0.5-1.2-0.7-2.5-0.4-3.7c0.3-1.3,0.8-2.4,1.7-3.5c1-1.2,2.1-1.9,3.4-2.2
	c1.3-0.3,2.6-0.2,3.9,0.4l-0.9,1.8c-1.1-0.4-2-0.6-2.9-0.4c-0.8,0.2-1.6,0.7-2.2,1.5c-0.8,0.9-1.2,1.8-1.2,2.8
	c-0.1,1,0.1,1.9,0.7,2.8c0.5,0.9,1.2,1.6,1.9,2.3c1,0.8,2,1.4,3,1.8c1,0.3,1.9,0.4,2.8,0.1c0.9-0.3,1.6-0.8,2.2-1.5
	c0.7-0.9,1.1-1.8,1.1-2.8C253.5,232.9,253,231.9,252.2,230.9z M233.1,248c1.3,1.3,2.6,2,4.1,2.1c1.5,0.1,2.7-0.4,3.8-1.5
	c1.1-1.1,1.6-2.3,1.6-3.8c0-1.5-0.7-2.9-2.1-4.3c-0.9-0.9-1.8-1.5-2.7-1.9c-0.9-0.4-1.9-0.5-2.8-0.3c-0.9,0.2-1.8,0.6-2.5,1.3
	c-1,1-1.6,2.2-1.6,3.6C230.8,244.8,231.5,246.4,233.1,248z M231.6,249.5c-1.8-1.8-2.7-3.7-2.7-5.7c0-2,0.7-3.7,2.3-5.2
	c1-1,2.2-1.6,3.5-1.9c1.3-0.3,2.6-0.2,3.8,0.2c1.3,0.5,2.5,1.2,3.5,2.3c1.1,1.1,1.8,2.3,2.2,3.7c0.4,1.3,0.4,2.6,0,3.9
	c-0.4,1.3-1.1,2.3-2,3.3c-1,1-2.2,1.7-3.5,1.9c-1.3,0.3-2.6,0.2-3.9-0.3C233.7,251.1,232.6,250.4,231.6,249.5z M222.4,259.4l1.5-1.3
	c0.5,0.6,1.1,0.9,1.6,1.2c0.6,0.2,1.2,0.2,2,0.1c0.4-0.1,0.7-0.2,1.1-0.4c0.4-0.2,0.7-0.4,1.1-0.6c0.6-0.4,1.1-0.9,1.4-1.5
	c0.3-0.5,0.5-1,0.5-1.5c0-0.5-0.1-0.9-0.4-1.3c-0.3-0.4-0.7-0.7-1.1-0.8c-0.4-0.1-1-0.1-1.7,0.1c-0.4,0.1-1.2,0.4-2.6,1
	c-1.4,0.6-2.4,0.9-3,1c-0.8,0.1-1.5,0.1-2.2-0.2c-0.6-0.2-1.1-0.7-1.6-1.2c-0.5-0.6-0.7-1.3-0.7-2.1c0-0.8,0.2-1.6,0.7-2.4
	c0.5-0.8,1.1-1.5,2-2.1c0.9-0.7,1.8-1.1,2.8-1.3c0.9-0.2,1.8-0.2,2.6,0.1c0.4,0.2,0.8,0.4,1.1,0.6c0.3,0.3,0.6,0.6,0.9,0.9l-1.5,1.3
	c-0.6-0.7-1.4-1.1-2.2-1.2c-0.8,0-1.7,0.3-2.6,1c-1,0.7-1.6,1.4-1.8,2.1c-0.2,0.7-0.1,1.3,0.3,1.8c0.3,0.4,0.7,0.7,1.3,0.7
	c0.5,0.1,1.6-0.2,3.1-0.9c1.6-0.7,2.7-1.1,3.3-1.2c1-0.2,1.8-0.2,2.5,0.1c0.4,0.1,0.7,0.3,1,0.5c0.3,0.2,0.6,0.5,0.8,0.9
	c0.5,0.7,0.7,1.4,0.8,2.3c0,0.9-0.2,1.7-0.6,2.6c-0.5,0.8-1.2,1.6-2,2.2c-1.1,0.8-2.2,1.3-3.2,1.6c-1,0.2-1.9,0.2-2.9-0.2
	c-0.5-0.2-0.9-0.4-1.3-0.7C223.1,260.1,222.7,259.8,222.4,259.4z M205.5,269l1.6-1c0.4,0.6,0.9,1.1,1.4,1.4c0.5,0.3,1.2,0.4,1.9,0.4
	c0.4,0,0.8-0.1,1.1-0.2c0.4-0.1,0.8-0.3,1.2-0.5c0.7-0.3,1.2-0.8,1.7-1.2c0.4-0.5,0.7-1,0.8-1.4c0.1-0.5,0-0.9-0.2-1.4
	c-0.2-0.4-0.5-0.8-0.9-0.9c-0.4-0.2-1-0.2-1.6-0.2c-0.4,0-1.3,0.2-2.7,0.6c-1.4,0.3-2.5,0.5-3.1,0.5c-0.8,0-1.5-0.2-2.1-0.5
	c-0.6-0.3-1-0.8-1.4-1.5c-0.4-0.7-0.5-1.4-0.4-2.2c0.1-0.8,0.4-1.5,1-2.2c0.6-0.7,1.3-1.3,2.3-1.8c1-0.5,2-0.8,2.9-0.9
	c0.9-0.1,1.8,0.1,2.5,0.5c0.4,0.2,0.7,0.5,1,0.8c0.3,0.3,0.6,0.6,0.7,1l-1.7,1c-0.5-0.8-1.2-1.3-1.9-1.5c-0.8-0.2-1.7,0-2.7,0.6
	c-1.1,0.6-1.8,1.2-2.1,1.8c-0.3,0.7-0.3,1.3,0,1.8c0.2,0.5,0.6,0.8,1.1,0.9c0.5,0.1,1.6,0,3.2-0.4c1.6-0.4,2.8-0.6,3.5-0.7
	c1,0,1.8,0.1,2.5,0.5c0.3,0.2,0.6,0.4,0.9,0.7c0.3,0.3,0.5,0.6,0.7,1c0.4,0.7,0.5,1.5,0.4,2.4c-0.1,0.8-0.4,1.7-1,2.4
	c-0.6,0.8-1.4,1.4-2.4,1.9c-1.2,0.6-2.4,1-3.4,1.1c-1,0.1-2-0.1-2.8-0.6c-0.4-0.3-0.8-0.6-1.2-0.9C206,269.8,205.7,269.4,205.5,269z
	 M192.4,274.2l1.7-0.9c0.4,0.7,0.8,1.2,1.3,1.5c0.5,0.3,1.1,0.5,1.9,0.5c0.4,0,0.8,0,1.2-0.1c0.4-0.1,0.8-0.2,1.2-0.4
	c0.7-0.3,1.3-0.6,1.8-1.1c0.5-0.4,0.8-0.9,0.9-1.4c0.1-0.5,0.1-0.9-0.1-1.4c-0.2-0.5-0.5-0.8-0.9-1c-0.4-0.2-0.9-0.3-1.6-0.3
	c-0.4,0-1.3,0.1-2.8,0.3c-1.5,0.2-2.5,0.3-3.2,0.2c-0.8-0.1-1.5-0.3-2-0.7c-0.5-0.4-1-0.9-1.2-1.6c-0.3-0.7-0.4-1.5-0.2-2.3
	c0.2-0.8,0.6-1.5,1.2-2.1c0.6-0.6,1.5-1.2,2.4-1.5c1.1-0.4,2.1-0.6,3-0.6c0.9,0,1.8,0.3,2.5,0.8c0.4,0.3,0.7,0.5,1,0.9
	c0.3,0.3,0.5,0.7,0.7,1.1l-1.8,0.9c-0.5-0.9-1.1-1.4-1.8-1.6c-0.7-0.2-1.7-0.1-2.8,0.3c-1.1,0.5-1.9,1-2.2,1.6
	c-0.4,0.6-0.4,1.2-0.2,1.8c0.2,0.5,0.6,0.8,1.1,1c0.5,0.2,1.6,0.1,3.2-0.1c1.7-0.3,2.8-0.4,3.5-0.4c1,0.1,1.8,0.3,2.4,0.7
	c0.3,0.2,0.6,0.5,0.8,0.8c0.2,0.3,0.4,0.6,0.6,1c0.3,0.8,0.4,1.6,0.2,2.4c-0.2,0.8-0.6,1.6-1.2,2.3c-0.7,0.7-1.5,1.3-2.5,1.7
	c-1.3,0.5-2.4,0.8-3.5,0.8c-1,0-1.9-0.3-2.7-0.9c-0.4-0.3-0.8-0.6-1.1-1C192.9,275.1,192.6,274.7,192.4,274.2z M178.3,275.6
	c0.5,1.8,1.4,3,2.6,3.8c1.3,0.8,2.6,0.9,4,0.5c1.5-0.4,2.5-1.3,3.2-2.6c0.7-1.3,0.7-2.9,0.2-4.8c-0.3-1.2-0.9-2.2-1.5-3
	c-0.7-0.8-1.5-1.3-2.4-1.6c-0.9-0.3-1.9-0.3-2.8,0c-1.4,0.4-2.4,1.2-3.2,2.5C177.7,271.7,177.7,273.4,178.3,275.6z M176.3,276.2
	c-0.7-2.4-0.6-4.6,0.3-6.3c0.9-1.8,2.4-2.9,4.5-3.5c1.4-0.4,2.7-0.4,4-0.1c1.3,0.3,2.4,1,3.3,2c0.9,1,1.6,2.2,2,3.7
	c0.4,1.5,0.5,2.9,0.2,4.3c-0.3,1.4-0.9,2.5-1.8,3.4c-0.9,0.9-2,1.6-3.3,1.9c-1.4,0.4-2.7,0.4-4,0.1c-1.3-0.4-2.4-1-3.3-2
	C177.3,278.6,176.7,277.5,176.3,276.2z M164.7,276.8l4.3-0.5c0.9-0.1,1.6-0.3,2.1-0.5c0.5-0.3,0.9-0.6,1.1-1.1
	c0.2-0.5,0.3-0.9,0.2-1.4c-0.1-0.7-0.4-1.3-1-1.7c-0.6-0.4-1.4-0.5-2.6-0.4l-4.8,0.6L164.7,276.8z M163.7,285.6l-1.9-15.2l6.8-0.8
	c1.4-0.2,2.4-0.2,3.1,0c0.7,0.2,1.4,0.6,1.9,1.2c0.5,0.6,0.8,1.4,0.9,2.2c0.1,1.1-0.1,2-0.7,2.9c-0.6,0.8-1.6,1.4-3.1,1.8
	c0.6,0.2,1,0.4,1.3,0.6c0.6,0.5,1.3,1.1,1.9,1.8l3.2,3.8l-2.5,0.3l-2.4-2.9c-0.7-0.9-1.3-1.5-1.7-1.9c-0.4-0.4-0.8-0.7-1.2-0.9
	c-0.3-0.2-0.6-0.3-1-0.3c-0.1,0-0.3,0-0.5,0c-0.2,0-0.4,0-0.7,0.1l-2.3,0.3l0.8,6.8L163.7,285.6z M158.9,280.6l2.1,0.4
	c-0.3,1.7-1,3-2.1,3.9c-1.1,0.9-2.4,1.4-4,1.5c-1.6,0.1-3-0.2-4.1-0.8c-1.1-0.6-1.9-1.6-2.5-2.8c-0.6-1.3-1-2.6-1-4.1
	c-0.1-1.6,0.1-3,0.7-4.2c0.5-1.2,1.4-2.2,2.5-2.9c1.1-0.7,2.3-1.1,3.7-1.1c1.5-0.1,2.8,0.2,3.9,1c1.1,0.7,1.9,1.8,2.4,3.2l-2,0.6
	c-0.4-1.1-1-1.9-1.7-2.3c-0.7-0.5-1.6-0.7-2.6-0.6c-1.2,0.1-2.1,0.4-2.9,1c-0.8,0.6-1.3,1.4-1.6,2.4c-0.3,1-0.4,2-0.3,3
	c0.1,1.3,0.3,2.4,0.7,3.4c0.4,1,1.1,1.7,1.9,2.1c0.8,0.4,1.7,0.6,2.7,0.6c1.1-0.1,2.1-0.4,2.8-1.1
	C158.2,282.9,158.7,281.9,158.9,280.6z M129,283l3.3,0.4c1,0.1,1.8,0.1,2.4,0c0.6-0.1,1.1-0.3,1.5-0.6c0.5-0.4,1-1,1.4-1.8
	c0.4-0.8,0.6-1.7,0.8-2.9c0.2-1.6,0.1-2.8-0.3-3.8c-0.4-0.9-1-1.6-1.7-2c-0.5-0.3-1.4-0.5-2.6-0.6l-3.2-0.4L129,283z M126.8,284.5
	l1.9-15.2l5.3,0.6c1.2,0.1,2.1,0.3,2.7,0.6c0.8,0.3,1.5,0.8,2.1,1.4c0.7,0.8,1.2,1.7,1.5,2.8c0.3,1.1,0.3,2.3,0.2,3.7
	c-0.1,1.1-0.4,2.1-0.8,3c-0.4,0.9-0.8,1.6-1.3,2.1c-0.5,0.5-1,0.9-1.6,1.2c-0.5,0.3-1.2,0.4-1.9,0.5c-0.7,0.1-1.6,0.1-2.5,0
	L126.8,284.5z M112.9,281.3l3.7-14.9l10.8,2.7l-0.4,1.8l-8.8-2.2l-1.1,4.6l8.2,2.1l-0.4,1.7l-8.2-2.1l-1.3,5.1l9.1,2.3l-0.4,1.8
	L112.9,281.3z M102.9,269l4.1,1.4c0.9,0.3,1.6,0.4,2.1,0.4c0.6,0,1-0.2,1.4-0.5c0.4-0.3,0.7-0.7,0.8-1.2c0.2-0.7,0.2-1.3-0.2-2
	c-0.3-0.6-1.1-1.1-2.1-1.5l-4.6-1.6L102.9,269z M98.2,276.5l5-14.5l6.4,2.2c1.3,0.4,2.2,0.9,2.8,1.4c0.6,0.5,1,1.1,1.1,1.9
	c0.2,0.8,0.1,1.6-0.1,2.4c-0.4,1-1,1.8-1.9,2.3c-0.9,0.5-2.1,0.6-3.6,0.3c0.4,0.4,0.7,0.8,0.9,1.1c0.4,0.7,0.7,1.5,0.9,2.5l1.2,4.8
	l-2.4-0.8l-0.9-3.7c-0.3-1.1-0.5-1.9-0.7-2.5c-0.2-0.6-0.4-1-0.7-1.3c-0.2-0.3-0.5-0.5-0.7-0.7c-0.1-0.1-0.2-0.1-0.4-0.2
	c-0.2-0.1-0.4-0.2-0.6-0.2l-2.2-0.8l-2.2,6.4L98.2,276.5z M79.1,266.7l7.9-13.2l1.8,1.1l0.7,14.5l6.2-10.3l1.7,1l-7.9,13.2l-1.8-1.1
	L87,257.4l-6.2,10.3L79.1,266.7z M73.3,255.2l4.2,3.1l1.2-4.4c0.3-1.2,0.7-2.3,1-3.2c-0.7,0.7-1.5,1.3-2.4,1.9L73.3,255.2z
	 M66,257.7l13.8-9l1.8,1.3l-3.9,16.1l-1.9-1.4L77,260l-5.2-3.8l-4.1,2.8L66,257.7z M62.9,255.3l9.5-12.1l1.6,1.3l-9.5,12.1
	L62.9,255.3z M51.3,244.5l10.7-11l1.5,1.4l-2.6,14.3l8.4-8.7l1.4,1.4l-10.7,11l-1.5-1.4l2.6-14.3l-8.4,8.7L51.3,244.5z M42,233.7
	l11.8-9.9l7.1,8.5l-1.4,1.2l-5.8-6.9l-3.6,3l5.5,6.5l-1.4,1.2l-5.5-6.5l-4,3.4l6.1,7.2l-1.4,1.2L42,233.7z M31.9,218.7l13-8.1
	l1.6,2.6l-7.3,8.8l-1.5,1.8c0.5-0.1,1.4-0.3,2.5-0.6l11-2.5l1.4,2.3l-13,8.1l-1-1.7l10.9-6.8l-13.3,3l-1-1.6l8.7-10.7l-11.1,6.9
	L31.9,218.7z M33.7,203l1.9,3.9c0.4,0.8,0.8,1.4,1.2,1.8c0.4,0.4,0.9,0.6,1.4,0.7c0.5,0.1,1,0,1.4-0.2c0.7-0.3,1.1-0.8,1.3-1.5
	c0.2-0.7,0-1.5-0.5-2.5l-2.1-4.4L33.7,203z M25.1,204.9l13.8-6.7l3,6.1c0.6,1.2,0.9,2.2,1,3c0.1,0.8-0.1,1.5-0.6,2.2
	c-0.4,0.7-1,1.2-1.8,1.6c-1,0.5-2,0.6-2.9,0.3c-1-0.3-1.9-1.1-2.7-2.3c0,0.6,0,1.1-0.2,1.4c-0.2,0.7-0.6,1.5-1.1,2.4l-2.6,4.2
	l-1.1-2.3l2-3.2c0.6-1,1-1.7,1.3-2.2c0.3-0.5,0.4-1,0.5-1.4c0-0.3,0-0.7,0-1c0-0.1-0.1-0.3-0.2-0.4c-0.1-0.2-0.2-0.4-0.3-0.6l-1-2.1
	l-6.1,3L25.1,204.9z M26.8,192l1.7,4.9L32,194c1-0.8,1.9-1.5,2.7-2.1c-1,0.1-2,0.2-3,0.2L26.8,192z M19.4,189.9l16.4,0.6l0.7,2.1
	l-12.5,10.9l-0.8-2.2l3.8-3.2l-2.1-6.1l-4.9-0.1L19.4,189.9z"/>
<path class="st1" d="M278,181.8l1.3,0.9c-0.7,1-1.2,1.7-1.6,2.1c0.4,0.1,0.9,0.1,1.4,0.2c0.5,0.1,0.9,0.2,1.2,0.3l-0.4,1.5
	c-0.3-0.1-0.7-0.2-1.1-0.3c-0.4-0.1-0.8-0.3-1.4-0.6c0.1,0.4,0.1,0.8,0.2,1.3c0.1,0.5,0.1,0.9,0.1,1.4l-1.6,0.1
	c-0.1-0.9,0-1.8,0.1-2.7c-0.5,0.3-1.3,0.7-2.4,1.2l-0.5-1.5c0.6-0.2,1.5-0.5,2.6-0.8c-0.8-0.8-1.4-1.4-1.8-1.9l1.2-1
	c0.8,1.1,1.3,1.8,1.5,2.2C277.1,183.2,277.6,182.5,278,181.8 M283.9,166.8l-0.7,4.1l-11.1-2c-0.8-0.1-1.5-0.1-2,0.1
	c-0.5,0.2-0.8,0.6-1,1c-0.2,0.4-0.3,0.9-0.4,1.4c-0.1,0.5-0.1,1-0.1,1.4c0,0.4,0.2,0.9,0.6,1.3c0.4,0.4,1,0.7,1.8,0.9l4.3,0.8
	l-0.4,2l-4.5-0.8c-0.5-0.1-1.1-0.3-1.5-0.6c-0.5-0.3-0.9-0.7-1.2-1.2c-0.3-0.5-0.6-1.1-0.7-1.8c-0.1-0.7-0.1-1.5,0-2.3
	c0.2-1.1,0.6-2.1,1.1-2.7c0.6-0.7,1.2-1.2,1.9-1.4c0.7-0.2,1.5-0.3,2.2-0.2l9.7,1.7l0.4-2L283.9,166.8z M284.6,157.6l-0.1,2
	l-4.7-0.3l-0.3,4.5l-1.7-0.1l0.3-4.5l-9.2-0.6l0.1-2L284.6,157.6z M269.2,153.1l-0.1-2.1l11.2-0.4c1.2,0,2-0.4,2.4-1
	c0.3-0.6,0.5-1.4,0.5-2.2c0-0.8-0.2-1.6-0.6-2.2c-0.4-0.6-1.2-0.9-2.4-0.8l-11.2,0.4l-0.1-2.1l11.3-0.4c0.8,0,1.5,0.1,2.2,0.5
	c0.7,0.3,1.2,0.9,1.7,1.7c0.5,0.8,0.7,1.7,0.8,2.9c0,1.1-0.1,2.1-0.5,2.9c-0.4,0.8-0.9,1.4-1.6,1.8c-0.7,0.4-1.4,0.6-2.1,0.6
	L269.2,153.1z M279.5,130l-0.3-2.1c0.6-0.1,1.2,0,1.8,0.2c0.6,0.2,1.1,0.7,1.6,1.3c0.5,0.7,0.8,1.6,1,2.7c0.1,0.9,0.1,1.7,0,2.4
	c-0.1,0.7-0.4,1.2-0.7,1.7c-0.3,0.4-0.7,0.8-1.2,1c-0.5,0.3-0.9,0.4-1.5,0.5c-1.1,0.2-2,0-2.5-0.3c-0.6-0.4-0.9-0.7-1.1-1
	c0,0.2-0.1,0.4-0.2,0.8c-0.1,0.4-0.5,0.8-1,1.2c-0.5,0.4-1.3,0.7-2.3,0.9c-0.9,0.1-1.7,0-2.4-0.3c-0.8-0.3-1.4-0.9-1.9-1.7
	c-0.3-0.4-0.5-0.8-0.7-1.3c-0.2-0.5-0.3-1-0.4-1.6c-0.1-0.9-0.1-1.6,0.1-2.3c0.2-0.7,0.4-1.3,0.8-1.8c0.4-0.5,0.8-0.9,1.3-1.2
	c0.5-0.3,1-0.5,1.6-0.6l0.3,2c-1,0.1-1.7,0.7-2,1.6c-0.3,0.9-0.4,1.7-0.4,2.2c0.1,0.6,0.4,1.3,0.9,2.1c0.5,0.8,1.4,1.1,2.7,0.9
	c1.2-0.2,2-0.7,2.3-1.5c0.3-0.8,0.4-1.5,0.3-2.3l-0.7-5l1.7-0.2l0.7,5c0.1,0.7,0.4,1.3,0.8,1.9c0.4,0.5,1.1,0.8,2.1,0.6
	c0.9-0.1,1.5-0.6,1.7-1.3c0.2-0.7,0.3-1.4,0.2-2c0-0.1,0-0.2-0.1-0.4c0-0.1-0.1-0.3-0.2-0.6c-0.1-0.3-0.3-0.6-0.7-1
	S280.1,129.9,279.5,130z M272.8,118.3c-0.2-0.7-0.4-1.2-0.7-1.5c-0.3-0.3-0.6-0.4-1.1-0.4c-0.3,0-0.5,0-0.8,0.1
	c-0.3,0.1-0.7,0.1-1.2,0.3c-0.6,0.2-1,0.3-1.4,0.5c-0.3,0.2-0.6,0.4-0.8,0.6c-0.2,0.3-0.3,0.6-0.3,1c0,0.2,0,0.5,0.1,0.7
	c0,0.3,0.1,0.6,0.2,0.9c0.6,2.1,1.9,2.9,3.8,2.4l6.3-1.8c1.2-0.3,1.9-0.9,2-1.6c0.2-0.7,0.1-1.5-0.1-2.3l-1.1-3.7
	c0-0.1,0-0.2-0.1-0.2l-0.1-0.3c-0.5-1.7-1.7-2.3-3.6-1.8l-10.7,3.1l-0.6-2l10.9-3.1c0.8-0.2,1.6-0.3,2.3-0.1c0.7,0.2,1.4,0.6,2,1.2
	c0.6,0.6,1.1,1.5,1.4,2.6l1.1,4c0.3,1.1,0.4,2.1,0.2,2.9c-0.2,0.9-0.6,1.6-1.1,2.1c-0.5,0.5-1.2,0.9-1.9,1.1l-6.6,1.9
	c-0.7,0.2-1.5,0.2-2.2,0.1c-0.8-0.2-1.5-0.5-2.1-1.2c-0.6-0.6-1.1-1.5-1.4-2.6c-0.3-1-0.4-1.8-0.5-2.5c0-0.7,0.1-1.3,0.3-1.8
	c0.2-0.5,0.6-0.9,1.1-1.3c0.5-0.4,1.2-0.6,2.1-0.9c1.2-0.4,2.3-0.5,3-0.4c0.8,0.1,1.4,0.4,1.9,0.9c0.5,0.5,0.9,1.4,1.2,2.4l0.7,2.5
	l-1.7,0.5L272.8,118.3z M274,98l0.8,1.9l-4.4,1.8l1.7,4.2l-1.6,0.7l-1.7-4.2l-8.5,3.4l-0.8-1.9L274,98z M258.1,100.6l-0.9-1.8
	l10-5.1c1.1-0.6,1.7-1.2,1.7-1.9c0-0.7-0.1-1.4-0.5-2.2c-0.4-0.8-0.9-1.3-1.5-1.7c-0.6-0.4-1.4-0.3-2.5,0.3l-10,5.1l-0.9-1.8
	l10.1-5.1c0.7-0.3,1.4-0.5,2.2-0.5c0.8,0,1.5,0.3,2.3,0.8c0.7,0.5,1.4,1.3,1.9,2.3c0.5,1,0.8,2,0.7,2.9c0,0.9-0.3,1.7-0.7,2.3
	c-0.4,0.6-1,1.1-1.7,1.5L258.1,100.6z M256.8,75.7l-9.4,6.1l-1.1-1.7l9.5-6.2c0.6-0.4,1.3-0.7,2.1-0.7c0.8-0.1,1.5,0.1,2.3,0.5
	c0.8,0.4,1.5,1.1,2.1,2.1c0.6,1,1,1.9,1,2.8c0.1,0.9-0.1,1.7-0.5,2.3c-0.4,0.7-0.9,1.2-1.5,1.6l-3.9,2.5l-1.1-1.7l3.8-2.4
	c1-0.7,1.5-1.4,1.5-2.1c0-0.4-0.1-0.7-0.2-1.1c-0.1-0.3-0.3-0.7-0.5-1c-0.5-0.7-1-1.2-1.7-1.5C258.6,74.8,257.8,75,256.8,75.7z
	 M246,64.8l-4.1,3.6c-0.6,0.6-1,1.1-1.2,1.7c-0.1,0.5-0.1,1,0.1,1.4c0.2,0.4,0.5,0.8,0.8,1.2c0.3,0.4,0.7,0.7,1,0.9
	c0.4,0.3,0.8,0.4,1.4,0.3c0.6,0,1.2-0.3,1.8-0.9l1.7-1.5l1.3,1.6l-1.8,1.6c-0.4,0.4-0.9,0.6-1.4,0.8c-0.5,0.2-1.1,0.3-1.7,0.2
	c-0.6,0-1.2-0.2-1.8-0.6c-0.6-0.3-1.2-0.8-1.8-1.5c-0.8-0.9-1.2-1.7-1.4-2.6c-0.2-0.9-0.2-1.7,0.1-2.4c0.3-0.7,0.7-1.3,1.3-1.8
	l8.6-7.5l1.4,1.6l-3.2,2.8l5.4,6.2l-1.3,1.1L246,64.8z M236.8,62.4c-0.2,0-0.6,0-1.1-0.2c-0.3-0.1-0.6-0.2-0.9-0.4
	c-0.3-0.2-0.6-0.5-1-0.8c-0.8-0.8-1.4-1.6-1.7-2.4c-0.3-0.8-0.3-1.6-0.1-2.4c0.2-0.7,0.6-1.4,1.1-2l5.3-5.7l1.5,1.4l-5.2,5.6
	c-0.8,0.9-1.2,1.7-1,2.4c0.2,0.7,0.6,1.3,1.2,1.9c0.5,0.4,1,0.8,1.7,1.1c0.7,0.3,1.2,0.3,1.6-0.2l2.9-3.2l1.5,1.4l-7.5,8l-1.5-1.4
	L236.8,62.4z M224.2,38.1l3.4,2.4l-6.5,9.3c-0.5,0.7-0.7,1.3-0.7,1.9c0,0.5,0.2,1,0.5,1.4c0.3,0.4,0.7,0.7,1.1,1
	c0.4,0.3,0.8,0.5,1.2,0.7c0.4,0.2,0.9,0.1,1.4,0c0.5-0.2,1.1-0.6,1.6-1.3l2.5-3.6l1.7,1.2l-2.6,3.7c-0.3,0.5-0.7,0.8-1.2,1.2
	c-0.5,0.3-1,0.5-1.6,0.6c-0.6,0.1-1.2,0.1-1.9-0.1c-0.7-0.2-1.4-0.5-2.1-1c-0.9-0.7-1.6-1.4-2-2.2c-0.4-0.8-0.5-1.6-0.5-2.3
	c0.1-0.8,0.4-1.5,0.8-2.1l5.7-8.1l-1.7-1.2L224.2,38.1z M213.8,49.7l-9-5l5.5-9.9c0.4-0.7,0.9-1.2,1.5-1.6c0.6-0.4,1.4-0.6,2.3-0.6
	c0.9,0,1.9,0.3,2.9,0.8c1,0.6,1.7,1.2,2.2,2c0.5,0.8,0.7,1.5,0.7,2.3c0,0.8-0.2,1.5-0.6,2.1l-2.2,3.9l-1.8-1l2.1-3.8
	c0.6-1.1,0.7-1.9,0.3-2.5c-0.4-0.6-0.9-1.1-1.6-1.5c-0.7-0.4-1.5-0.6-2.2-0.6c-0.7,0-1.4,0.6-2,1.7l-4.6,8.3l7.2,4L213.8,49.7z
	 M194.4,23l-1.7,4.5c0.2-0.1,0.7-0.2,1.3-0.4c0.6-0.1,1.3,0,2.1,0.3c1.1,0.4,1.9,1,2.5,1.6c0.6,0.7,0.9,1.4,1,2.2
	c0.1,0.8,0,1.5-0.3,2.2l-1,2.6l-1.9-0.7l1-2.5c0.4-1.1,0.4-2,0-2.6c-0.4-0.6-1-1-1.8-1.3c-0.8-0.3-1.6-0.4-2.3-0.1
	c-0.7,0.2-1.3,0.7-1.6,1.6l-2.8,7.3l-1.9-0.7l5.6-14.6L194.4,23z M181.7,35.8l-8-4.2l0.4-1.8l2.6,1.4c0.1,0,0.3,0.1,0.5,0.1
	c0.2,0,0.4,0,0.7,0c0.5,0,1.2-0.1,2-0.3c0.8-0.2,1.6-0.6,2.3-1.3c0.7-0.6,1.2-1.6,1.5-2.8l0.4-1.8c0.2-1,0.2-1.8-0.2-2.4
	c-0.3-0.6-0.7-1.1-1.2-1.4c-0.5-0.3-0.9-0.5-1.3-0.6c-0.4-0.1-0.8-0.1-1.3-0.1c-0.5,0-1.1,0.3-1.6,0.7c-0.6,0.4-0.9,1.1-1.1,2
	l-0.3,1.4l-2-0.4l0.4-1.5c0.1-0.5,0.4-1.1,0.7-1.6c0.4-0.5,0.8-1,1.4-1.3c0.6-0.4,1.2-0.6,1.9-0.7c0.7-0.1,1.5-0.1,2.4,0.1
	c0.9,0.2,1.6,0.5,2.2,1c0.6,0.4,1.1,1,1.5,1.5c0.4,0.6,0.6,1.2,0.7,1.8c0.1,0.3,0.1,0.6,0.1,0.9c0,0.3,0,0.6-0.1,0.9l-0.6,2.4
	c-0.3,1.1-0.7,2-1.4,2.7c-0.7,0.7-1.4,1.2-2.1,1.4c-0.4,0.1-0.7,0.2-1,0.3c-0.3,0.1-0.6,0.1-0.9,0.2c-0.5,0.1-0.9,0.1-1.1,0.1l3,1.6
	L181.7,35.8z M164.3,32.3c-1-0.1-1.9-0.4-2.6-0.9c-0.7-0.5-1.2-1.1-1.6-1.8c-0.3-0.7-0.5-1.5-0.4-2.4l1.4-11.4l2,0.3l-1.4,11.3
	c-0.1,0.9,0,1.5,0.2,2c0.3,0.5,0.6,0.8,1,1c0.5,0.2,0.9,0.3,1.4,0.3c0.5,0.1,1,0.1,1.4,0c0.4-0.1,0.9-0.3,1.3-0.7
	c0.4-0.4,0.7-1,0.8-1.9l1.4-11.3l2,0.3L170,28.4c0,0.3-0.1,0.5-0.1,0.7c-0.1,0.2-0.1,0.4-0.3,0.6c-0.2,0.3-0.4,0.6-0.5,0.7l1.9,1.7
	l-1.2,1.5l-2-1.9c-0.6,0.3-1.2,0.4-1.7,0.5c-0.2,0-0.5,0.1-0.9,0.1C164.9,32.3,164.6,32.3,164.3,32.3z M145.6,21.5l-3.6,0.1l0.2,9.8
	l-2.1,0l-0.3-15.6l2.1,0l0.1,4.2l5.6-0.1l0.1,7.2c0,0.9,0.2,1.5,0.5,1.9c0.3,0.4,0.7,0.7,1.1,0.8c0.4,0.1,0.9,0.2,1.4,0.1
	c0.5,0,1-0.1,1.4-0.2c0.4-0.1,0.8-0.4,1.1-0.9c0.3-0.4,0.5-1.1,0.5-2l-0.1-7.2l2.1,0l0.1,7.4c0,0.8-0.2,1.5-0.5,2.2
	c-0.3,0.7-0.9,1.2-1.7,1.7c-0.8,0.4-1.7,0.7-2.9,0.7c-1.7,0-3-0.4-3.8-1.3c-0.9-0.9-1.3-1.9-1.3-3.1L145.6,21.5z M120.7,23l1.9,11
	l-2,0.4l-2-11.2c-0.1-0.8-0.1-1.5,0.2-2.2c0.2-0.7,0.7-1.4,1.4-1.9c0.7-0.6,1.6-0.9,2.7-1.1c1.1-0.2,2.1-0.2,2.9,0.1
	c0.8,0.3,1.5,0.7,2,1.3c0.5,0.6,0.8,1.3,0.9,2l0.8,4.5l-2,0.4l-0.8-4.4c-0.2-1.2-0.7-1.9-1.3-2.2c-0.3-0.1-0.7-0.2-1-0.2
	c-0.4,0-0.7,0-1.2,0.1c-0.8,0.1-1.5,0.5-2.1,0.9C120.7,20.9,120.5,21.8,120.7,23z M104.3,23.3l1.6,4.5c0.1-0.2,0.4-0.6,0.8-1.1
	c0.4-0.5,1-0.9,1.8-1.1c1.1-0.4,2.1-0.5,2.9-0.3c0.9,0.1,1.6,0.5,2.2,1c0.6,0.5,1,1.1,1.2,1.9l0.9,2.6l-2,0.7l-0.9-2.5
	c-0.4-1.2-1-1.8-1.7-2c-0.7-0.2-1.4-0.1-2.2,0.2c-0.8,0.3-1.4,0.7-1.8,1.4c-0.4,0.6-0.5,1.4-0.2,2.2l2.6,7.4l-2,0.7L102.4,24
	L104.3,23.3z M95.4,26.8l3.8-1.7l0.7,1.5L98,27.4l4,9.1c0.2,0.5,0.4,1,0.4,1.6c0,0.6-0.1,1.1-0.3,1.7c-0.2,0.6-0.6,1.1-1.1,1.6
	c-0.5,0.5-1.2,0.9-2,1.3c-0.8,0.4-1.5,0.6-2.2,0.6c-0.7,0-1.3-0.1-1.9-0.3c-0.6-0.2-1-0.5-1.5-0.9c-0.2-0.2-0.4-0.4-0.5-0.6
	c-0.2-0.2-0.3-0.5-0.4-0.7l-4.7-10.5l1.9-0.8l4.6,10.4c0.4,0.8,0.8,1.3,1.3,1.6c0.5,0.3,1,0.4,1.4,0.3c0.5-0.1,0.9-0.2,1.4-0.4
	c0.5-0.2,0.9-0.5,1.3-0.7c0.3-0.3,0.6-0.7,0.7-1.2c0.1-0.5,0-1.2-0.3-2L95.4,26.8z M78.4,40.8l5.9,9.5l-1.7,1.1l-6-9.6
	c-0.4-0.6-0.6-1.3-0.7-2.1c0-0.8,0.1-1.5,0.6-2.3c0.4-0.8,1.1-1.5,2.1-2.1c1-0.6,1.9-0.9,2.8-1c0.9-0.1,1.7,0.1,2.3,0.5
	c0.7,0.4,1.2,0.9,1.6,1.5l2.4,3.9L86,41.3l-2.4-3.8c-0.6-1-1.3-1.5-2-1.5c-0.4,0-0.7,0.1-1.1,0.2c-0.3,0.1-0.7,0.3-1,0.5
	c-0.7,0.5-1.2,1-1.6,1.6C77.6,38.9,77.7,39.8,78.4,40.8z M75.8,56.9c-0.8,0.6-1.6,1-2.5,1.2c-0.8,0.2-1.6,0.1-2.4-0.2
	c-0.8-0.3-1.4-0.8-1.9-1.4l-7.1-9l1.6-1.3l7,8.9c0.5,0.7,1.1,1.1,1.6,1.2c0.5,0.1,1,0.1,1.4,0c0.4-0.2,0.9-0.5,1.2-0.8
	c0.4-0.3,0.7-0.6,1-1c0.3-0.4,0.4-0.8,0.4-1.4c0-0.6-0.3-1.2-0.8-1.9l-7-8.9l1.6-1.3l7,9c0.2,0.2,0.3,0.4,0.4,0.6
	c0.1,0.2,0.2,0.4,0.2,0.6c0.1,0.4,0.1,0.7,0.1,0.8l2.6-0.1l0.2,1.9L77.9,54c-0.2,0.6-0.5,1.1-0.8,1.5c-0.1,0.2-0.3,0.4-0.6,0.6
	C76.2,56.5,76,56.7,75.8,56.9z M64.5,60.3c0,0.2-0.1,0.5-0.3,1.1c-0.1,0.3-0.3,0.5-0.5,0.8c-0.2,0.3-0.5,0.6-0.9,0.9
	c-0.8,0.8-1.7,1.3-2.5,1.5c-0.9,0.2-1.6,0.2-2.4,0c-0.7-0.3-1.4-0.7-1.9-1.2l-5.3-5.7l1.5-1.4l5.2,5.6c0.8,0.9,1.6,1.3,2.3,1.1
	c0.7-0.1,1.4-0.5,2-1.1c0.5-0.4,0.9-1,1.2-1.6c0.4-0.7,0.3-1.2-0.1-1.6l-2.9-3.2l1.5-1.4l7.5,8l-1.5,1.4L64.5,60.3z M35.8,77.2
	l2.4-3.3l9.2,6.7c0.7,0.5,1.3,0.8,1.9,0.8c0.5,0,1-0.2,1.4-0.4c0.4-0.3,0.7-0.7,1-1.1c0.3-0.4,0.5-0.8,0.7-1.2
	c0.2-0.4,0.2-0.9,0-1.4c-0.2-0.5-0.6-1.1-1.3-1.6l-3.6-2.6l1.2-1.7l3.7,2.7c0.5,0.3,0.8,0.7,1.1,1.2c0.3,0.5,0.5,1,0.6,1.6
	c0.1,0.6,0.1,1.2-0.1,1.9c-0.2,0.7-0.5,1.4-1,2.1c-0.7,0.9-1.4,1.6-2.2,2c-0.8,0.4-1.6,0.5-2.3,0.4c-0.8-0.1-1.5-0.4-2.1-0.8l-8-5.8
	l-1.2,1.7L35.8,77.2z M45.1,92.7c-0.5,0.9-1.1,1.6-1.8,2c-0.7,0.5-1.5,0.7-2.3,0.7c-0.8,0-1.6-0.2-2.3-0.6l-9.9-5.7l1-1.8l9.8,5.7
	c0.7,0.4,1.4,0.6,1.9,0.6c0.5-0.1,1-0.3,1.3-0.6c0.3-0.3,0.6-0.7,0.9-1.2c0.3-0.4,0.4-0.9,0.6-1.3c0.1-0.4,0.1-0.9-0.2-1.4
	c-0.2-0.5-0.7-1-1.4-1.4L32.9,82l1-1.8l9.9,5.7c0.2,0.1,0.4,0.3,0.6,0.4c0.2,0.1,0.3,0.3,0.4,0.5c0.2,0.3,0.4,0.5,0.4,0.7l2.3-1
	l1,1.7L46,89.3c0,0.7-0.1,1.2-0.2,1.7c-0.1,0.2-0.2,0.5-0.3,0.8C45.4,92.1,45.2,92.4,45.1,92.7z M36.1,100.3
	c0.1,0.2,0.2,0.5,0.2,1.1c0,0.3,0,0.6-0.1,0.9c-0.1,0.3-0.2,0.7-0.4,1.2c-0.4,1.1-1,1.9-1.7,2.4c-0.7,0.6-1.4,0.9-2.2,1
	c-0.8,0.1-1.5,0-2.2-0.3l-7.2-2.9l0.8-1.9l7.1,2.9c1.1,0.5,2,0.5,2.6,0c0.6-0.4,1-1,1.3-1.8c0.2-0.6,0.4-1.3,0.4-2
	c0.1-0.7-0.2-1.2-0.7-1.4l-4-1.6l0.8-1.9L41,100l-0.7,1.9L36.1,100.3z M34.8,118.2c-0.3,1-0.7,1.8-1.3,2.4c-0.6,0.6-1.3,1.1-2,1.3
	c-0.8,0.2-1.6,0.2-2.4,0l-11-3.2l0.6-2l10.9,3.1c0.8,0.2,1.5,0.3,2,0.1c0.5-0.2,0.9-0.5,1.1-0.9c0.2-0.4,0.4-0.9,0.6-1.4
	c0.1-0.5,0.2-1,0.2-1.4c0-0.4-0.2-0.9-0.5-1.3c-0.3-0.5-0.9-0.8-1.7-1l-10.9-3.1l0.6-2l11,3.1c0.3,0.1,0.5,0.2,0.7,0.3
	c0.2,0.1,0.4,0.2,0.5,0.3c0.3,0.2,0.5,0.4,0.6,0.6l2-1.6L37,113l-2.2,1.7c0.2,0.6,0.2,1.2,0.2,1.7c0,0.2,0,0.5-0.1,0.9
	C34.9,117.6,34.8,117.9,34.8,118.2z M27.8,127.5c0.1,0.2,0.3,0.5,0.4,1c0.1,0.3,0.1,0.6,0.1,0.9c0,0.4-0.1,0.8-0.1,1.3
	c-0.2,1.1-0.6,2-1.2,2.7c-0.6,0.7-1.2,1.1-1.9,1.4c-0.7,0.2-1.5,0.3-2.2,0.1l-7.6-1.5l0.4-2l7.5,1.5c1.2,0.2,2.1,0.1,2.5-0.4
	c0.5-0.5,0.8-1.2,1-2c0.1-0.6,0.1-1.3,0-2c-0.1-0.7-0.4-1.2-1-1.3l-4.2-0.8l0.4-2l10.8,2.1l-0.4,2L27.8,127.5z M17.9,147.2l-0.1,2.1
	c-0.6,0-1.2-0.2-1.7-0.5c-0.6-0.3-1-0.9-1.4-1.6c-0.4-0.7-0.5-1.7-0.5-2.8c0-0.9,0.2-1.7,0.4-2.3c0.3-0.6,0.6-1.2,1-1.5
	c0.4-0.4,0.8-0.7,1.3-0.8c0.5-0.2,1-0.2,1.5-0.2c1.1,0,1.9,0.3,2.4,0.8c0.5,0.5,0.8,0.9,0.9,1.2c0-0.2,0.2-0.4,0.4-0.8
	c0.2-0.3,0.6-0.7,1.2-1c0.6-0.3,1.4-0.5,2.4-0.4c0.9,0,1.6,0.3,2.3,0.7c0.7,0.5,1.2,1.1,1.6,2c0.2,0.4,0.3,0.9,0.4,1.4
	c0.1,0.5,0.1,1.1,0.1,1.6c0,0.9-0.2,1.6-0.5,2.3c-0.3,0.7-0.6,1.2-1.1,1.7c-0.4,0.4-0.9,0.8-1.5,1c-0.5,0.2-1.1,0.3-1.6,0.3l0.1-2
	c1,0,1.8-0.4,2.2-1.2c0.4-0.8,0.7-1.6,0.8-2.1c0-0.6-0.2-1.3-0.5-2.2c-0.4-0.9-1.2-1.3-2.5-1.4c-1.3,0-2.1,0.3-2.5,1
	c-0.4,0.7-0.7,1.5-0.7,2.2l-0.2,5l-1.7-0.1l0.2-5c0-0.7-0.1-1.4-0.4-2c-0.3-0.6-1-0.9-2-1c-1,0-1.6,0.3-1.9,1
	c-0.3,0.7-0.5,1.3-0.5,2c0,0.1,0,0.2,0,0.4c0,0.1,0,0.3,0.1,0.7c0,0.3,0.2,0.7,0.5,1.1C16.8,146.9,17.2,147.1,17.9,147.2z
	 M30.5,158.7c0.1,1-0.1,1.9-0.4,2.7c-0.3,0.8-0.8,1.4-1.5,1.9c-0.7,0.5-1.4,0.7-2.3,0.8l-11.4,0.8l-0.1-2.1l11.3-0.8
	c0.9-0.1,1.5-0.3,1.9-0.6c0.4-0.4,0.7-0.8,0.8-1.2c0.1-0.5,0.1-1,0.1-1.5c0-0.5-0.1-1-0.3-1.4c-0.1-0.4-0.5-0.8-0.9-1.1
	c-0.5-0.3-1.1-0.4-2-0.4l-11.3,0.8l-0.1-2l11.4-0.8c0.3,0,0.5,0,0.7,0c0.2,0,0.4,0.1,0.6,0.1c0.4,0.1,0.6,0.2,0.8,0.3l1.4-2.2
	l1.7,0.9l-1.5,2.4c0.4,0.5,0.6,1.1,0.8,1.6c0.1,0.2,0.2,0.5,0.2,0.8C30.4,158,30.4,158.4,30.5,158.7z M26.3,167.9l4.7-0.8l0.4,2
	l-4.7,0.8c-0.7,0.1-1.2,0.4-1.6,0.8c-0.3,0.4-0.5,0.8-0.6,1.3c0,0.5,0,1,0.1,1.5l0.8,4.3l-1.6,0.3l-0.8-4.7
	c-0.1-0.7-0.4-1.3-0.8-1.8c-0.4-0.5-1.2-0.7-2.2-0.5c-1.7,0.3-2.4,1.3-2.1,3l0.9,4.8l-1.6,0.3l-0.8-4.3c-0.2-0.9-0.2-1.7-0.2-2.3
	c0-0.7,0.2-1.2,0.4-1.7c0.2-0.4,0.6-0.8,1.1-1.1c0.2-0.1,0.5-0.3,0.8-0.4c0.3-0.1,0.6-0.2,1-0.2c1.2-0.2,2.1-0.1,2.7,0.3
	c0.6,0.4,0.9,0.8,1.1,1.1c0-0.1,0.1-0.4,0.2-0.7c0.1-0.3,0.4-0.7,0.9-1.1C24.7,168.4,25.4,168.1,26.3,167.9z M22.6,188.5l-1.6-0.1
	c0.1-1.2,0.2-2.1,0.4-2.6c-0.4,0.1-0.8,0.3-1.3,0.5c-0.5,0.2-0.9,0.3-1.2,0.4l-0.4-1.5c0.3-0.1,0.7-0.2,1.1-0.2
	c0.4-0.1,0.9-0.1,1.5-0.2c-0.2-0.3-0.5-0.6-0.8-1c-0.3-0.4-0.6-0.8-0.8-1.2l1.3-0.9c0.5,0.8,0.9,1.5,1.3,2.4
	c0.2-0.5,0.7-1.2,1.5-2.3l1.2,1c-0.4,0.5-1,1.2-1.8,2c1.1,0.2,1.9,0.5,2.6,0.7l-0.5,1.4c-1.2-0.5-2-0.9-2.4-1.2
	C22.6,186.8,22.7,187.7,22.6,188.5z"/>
</svg>
